<svg width="76" height="63" viewBox="0 0 76 63" fill="none" xmlns="http://www.w3.org/2000/svg">
<path d="M0 24C9.38884 24 17 31.6112 17 41V63C7.61116 63 0 55.3888 0 46V24Z" fill="black"/>
<path fill-rule="evenodd" clip-rule="evenodd" d="M17 0C27.4934 0 36 8.50659 36 19V63C29.9029 63 24.4766 60.1281 21 55.6633V41C21 36.3923 19.516 32.1313 17 28.6686V0ZM59 0C48.5066 0 40 8.50659 40 19V63C46.0971 63 51.5234 60.1281 55 55.6633V41C55 36.3923 56.484 32.1313 59 28.6686V0Z" fill="black"/>
<path d="M76 24C66.6112 24 59 31.6112 59 41V63C68.3888 63 76 55.3888 76 46V24Z" fill="black"/>
</svg>
