<svg width="479" height="87" viewBox="0 0 479 87" fill="none" xmlns="http://www.w3.org/2000/svg">
<path d="M0 38C9.38884 38 17 45.6112 17 55V77C7.61116 77 0 69.3888 0 60V38Z" fill="black"/>
<path fill-rule="evenodd" clip-rule="evenodd" d="M17 14C27.4934 14 36 22.5066 36 33V77C29.9029 77 24.4766 74.1281 21 69.6633V55C21 50.3923 19.516 46.1313 17 42.6686V14ZM59 14C48.5066 14 40 22.5066 40 33V77C46.0971 77 51.5234 74.1281 55 69.6633V55C55 50.3923 56.484 46.1313 59 42.6686V14Z" fill="black"/>
<path d="M76 38C66.6112 38 59 45.6112 59 55V77C68.3888 77 76 69.3888 76 60V38Z" fill="black"/>
<path d="M104.009 70H108.56V44.8409C108.56 38.7301 112.625 34.3835 118.071 34.3835C123.44 34.3835 126.56 37.9631 126.56 43.2812V70H131.213V44.1506C131.213 38.5 134.588 34.3835 140.571 34.3835C145.761 34.3835 149.213 37.5028 149.213 43.6903V70H153.764V43.6903C153.764 34.8949 149.239 30.2159 141.952 30.2159C136.224 30.2159 132.082 33.0028 130.318 37.3494H129.986C128.247 32.9006 124.795 30.2159 119.375 30.2159C114.236 30.2159 110.401 32.696 108.841 36.7614H108.432V30.7273H104.009V70ZM181.691 70.8182C189.566 70.8182 194.859 66.5483 196.648 61.6136L192.327 60.2074C190.819 63.7358 187.265 66.6506 181.691 66.6506C173.663 66.6506 168.575 60.7955 168.37 51.7188H197.62V49.4688C197.62 36.3523 189.515 30.1903 181.001 30.1903C170.825 30.1903 163.793 38.7045 163.793 50.5938C163.793 62.5085 170.697 70.8182 181.691 70.8182ZM168.396 47.7045C168.881 40.392 173.816 34.3324 181.001 34.3324C188.032 34.3324 192.967 40.1364 192.967 47.7045H168.396ZM223.118 30.7273H214.808V21.3182H210.232V30.7273H204.376V34.6903H210.232V60.821C210.232 67.2386 215.294 70.5881 220.331 70.5881C222.223 70.5881 223.501 70.2301 224.371 69.8977L223.399 65.7812C222.76 65.9602 221.942 66.1392 220.74 66.1392C217.646 66.1392 214.808 64.6818 214.808 59.7472V34.6903H223.118V30.7273ZM233.454 70H238.005V44.6364C238.005 38.8068 242.479 34.5881 248.616 34.5881C249.817 34.5881 250.942 34.7926 251.352 34.8438V30.2159C250.738 30.1903 249.69 30.1392 248.948 30.1392C244.013 30.1392 239.795 32.7983 238.21 36.7614H237.877V30.7273H233.454V70ZM259.169 70H263.746V30.7273H259.169V70ZM261.496 23.9773C263.362 23.9773 264.922 22.4943 264.922 20.7045C264.922 18.9148 263.362 17.4318 261.496 17.4318C259.629 17.4318 258.095 18.9148 258.095 20.7045C258.095 22.4943 259.629 23.9773 261.496 23.9773ZM291.123 70.8182C299.305 70.8182 305.058 65.6534 306.106 58.5455H301.504C300.455 63.5568 296.339 66.6506 291.123 66.6506C283.427 66.6506 278.339 59.9517 278.339 50.3892C278.339 40.8778 283.58 34.3324 291.123 34.3324C296.722 34.3324 300.506 37.9375 301.478 42.3864H306.08C305.006 35.0994 298.921 30.1903 291.046 30.1903C280.768 30.1903 273.762 38.7301 273.762 50.5426C273.762 62.2528 280.563 70.8182 291.123 70.8182ZM342.246 39.3438C340.329 33.6676 336.136 30.1903 328.951 30.1903C321.025 30.1903 315.272 34.7159 315.272 41.1847C315.272 46.4517 318.468 50.0312 325.295 51.6676L331.712 53.2017C336.033 54.2244 338.104 56.4489 338.104 59.5938C338.104 63.6847 334.192 66.7273 328.158 66.7273C322.789 66.7273 319.44 64.2983 318.34 59.6449L313.968 60.7188C315.349 67.2642 320.539 70.8182 328.235 70.8182C336.877 70.8182 342.809 66.0625 342.809 59.3892C342.809 54.1477 339.511 50.6449 332.94 49.0341L327.008 47.5767C322.124 46.3494 319.849 44.3807 319.849 40.9801C319.849 36.9915 323.658 34.2045 328.951 34.2045C334.244 34.2045 336.852 36.9915 338.079 40.5199L342.246 39.3438ZM365.584 70.6392C371.925 70.6392 375.223 66.983 376.732 63.7102H377.192V70H387.93V17.6364H377.064V37.3239H376.732C375.274 34.1278 372.129 30.2159 365.558 30.2159C356.942 30.2159 349.655 36.9148 349.655 50.4148C349.655 63.5568 356.635 70.6392 365.584 70.6392ZM369.036 61.9716C363.692 61.9716 360.777 57.2159 360.777 50.3636C360.777 43.5625 363.641 38.8835 369.036 38.8835C374.328 38.8835 377.294 43.358 377.294 50.3636C377.294 57.3693 374.277 61.9716 369.036 61.9716ZM408.085 70.7415C413.888 70.7415 417.647 68.2102 419.565 64.554H419.871V70H430.201V43.5114C430.201 34.1534 422.275 30.2159 413.531 30.2159C404.121 30.2159 397.934 34.7159 396.425 41.875L406.499 42.6932C407.241 40.0852 409.567 38.1676 413.479 38.1676C417.187 38.1676 419.309 40.0341 419.309 43.2557V43.4091C419.309 45.9403 416.624 46.2727 409.798 46.9375C402.025 47.6534 395.045 50.2614 395.045 59.0312C395.045 66.804 400.593 70.7415 408.085 70.7415ZM411.204 63.2244C407.854 63.2244 405.451 61.6648 405.451 58.6733C405.451 55.6051 407.982 54.0966 411.817 53.5597C414.195 53.2273 418.082 52.6648 419.386 51.7955V55.9631C419.386 60.0795 415.985 63.2244 411.204 63.2244ZM456.396 70.767C468.31 70.767 475.725 62.6108 475.725 50.517C475.725 38.3466 468.31 30.2159 456.396 30.2159C444.481 30.2159 437.066 38.3466 437.066 50.517C437.066 62.6108 444.481 70.767 456.396 70.767ZM456.447 62.3295C450.95 62.3295 448.137 57.2926 448.137 50.4403C448.137 43.5881 450.95 38.5256 456.447 38.5256C461.842 38.5256 464.654 43.5881 464.654 50.4403C464.654 57.2926 461.842 62.3295 456.447 62.3295Z" fill="black"/>
</svg>
